<?xml version="1.0" standalone="no"?>
<!DOCTYPE svg PUBLIC "-//W3C//DTD SVG 20010904//EN"
 "http://www.w3.org/TR/2001/REC-SVG-20010904/DTD/svg10.dtd">
<svg version="1.0" xmlns="http://www.w3.org/2000/svg"
 width="5721.000000pt" height="3754.000000pt" viewBox="0 0 5721.000000 3754.000000"
 preserveAspectRatio="xMidYMid meet">

<g transform="translate(0.000000,3754.000000) scale(0.100000,-0.100000)"
fill="#000000" stroke="none">
<path d="M0 25600 l0 -11941 33 6 c17 3 555 86 1193 185 l1162 180 417 -60
417 -60 1135 60 1134 60 394 -90 395 -90 922 90 923 90 180 -25 c555 -75 1031
-95 2262 -95 l822 0 486 -60 485 -60 760 180 760 180 136 -30 c75 -17 269 -66
432 -110 162 -44 363 -95 446 -112 l151 -33 395 2 c217 1 724 10 1125 18 402
9 1065 19 1475 22 758 6 944 1 1210 -33 63 -7 400 -30 748 -49 l633 -35 202
178 202 179 220 6 c121 4 394 12 608 18 539 16 913 -3 1142 -56 57 -13 93 -33
250 -140 l183 -125 1003 -60 1002 -60 176 30 c97 17 338 65 536 106 911 191
1094 214 1805 221 l485 5 248 -66 248 -67 250 -144 249 -145 871 0 871 0 -6
27 c-4 16 -85 472 -181 1015 l-175 987 -60 1772 c-33 975 -58 1774 -56 1777 3
2 201 44 440 93 420 85 460 92 1148 178 l713 90 785 16 c432 8 979 19 1215 25
1294 29 4411 21 7720 -20 l1610 -20 910 -55 910 -55 470 -80 c259 -44 602
-100 763 -125 l294 -46 294 -175 c162 -96 294 -176 294 -177 0 -1 -25 -353
-55 -781 -30 -429 -54 -781 -52 -782 1 -2 34 11 72 27 352 149 794 303 1075
373 364 92 594 121 930 120 211 -1 269 -5 420 -27 96 -15 260 -38 365 -52
l190 -25 80 -78 c44 -43 123 -115 175 -159 129 -109 345 -333 461 -478 53 -66
223 -294 377 -507 l282 -388 30 -585 30 -585 -264 -618 c-145 -339 -263 -618
-262 -620 2 -1 1139 11 2527 28 1388 16 2532 30 2542 30 16 0 17 572 17 11875
l0 11875 -28605 0 -28605 0 0 -11940z"/>
<path d="M49786 16854 l-289 -55 -216 -147 -215 -147 -218 -277 -218 -277 -84
-357 -85 -357 -276 -277 -276 -276 -55 -328 -54 -327 -60 -90 c-33 -49 -55
-89 -48 -89 7 0 708 14 1557 30 l1545 30 55 46 c87 70 285 269 367 369 167
202 296 409 371 594 l43 106 0 408 0 408 -57 75 c-32 42 -128 178 -213 303
-138 201 -163 232 -223 277 -199 149 -557 313 -830 379 -170 42 -197 41 -521
-21z"/>
</g>
</svg>
